<svg xmlns="http://www.w3.org/2000/svg" version="1.1" viewBox="-5.0 -10.0 110.0 135.0">
 <g>
  <path d="m50 52.957c-11.168 0-23.457-7.418-23.957-23.668 0.5-16.457 12.75-23.875 23.957-23.875 11.168 0 23.457 7.418 23.957 23.668v0.20703c-0.5 16.25-12.75 23.668-23.957 23.668zm0-41.332c-8.543 0-17.332 5.457-17.707 17.625 0.375 12 9.168 17.418 17.707 17.418 8.543 0 17.293-5.418 17.707-17.543-0.41797-12.125-9.168-17.543-17.707-17.543z"/>
  <path d="m75 90.625c-1.707 0-3.125-1.418-3.125-3.125v-25c0-1.707 1.418-3.125 3.125-3.125s3.125 1.418 3.125 3.125v25c0 1.707-1.418 3.125-3.125 3.125z"/>
  <path d="m87.5 78.125h-25c-1.707 0-3.125-1.418-3.125-3.125s1.418-3.125 3.125-3.125h25c1.707 0 3.125 1.418 3.125 3.125s-1.418 3.125-3.125 3.125z"/>
  <path d="m50 94.793h-33.332c-4 0-7.293-3.293-7.293-7.293-1-10.418 2.582-21.082 9.793-28.957 6.957-7.582 16.293-11.875 26.707-11.668h1.25c6.543-0.082031 14.707-0.16797 20.875 2.707 1.582 0.75 2.25 2.582 1.5 4.168-0.75 1.582-2.582 2.25-4.168 1.5-4.875-2.293-12.25-2.207-18.168-2.125h-1.332-0.16797c-8.418 0-16.207 3.418-21.918 9.668-6 6.543-9 15.457-8.168 24.418 0 0.875 0.5 1.332 1.043 1.332h33.332c1.707 0 3.125 1.418 3.125 3.125s-1.418 3.125-3.125 3.125z"/>
 </g></svg>