<svg xmlns="http://www.w3.org/2000/svg" version="1.1" viewBox="-5.0 -10.0 110.0 135.0">
 <g>
  <path d="m70.914 38.594h-40.113c-1.1758 0-2.1289 0.95312-2.1289 2.1289 0 1.1758 0.95312 2.1289 2.1289 2.1289h40.113c1.1758 0 2.1289-0.95312 2.1289-2.1289 0-1.1758-0.95312-2.1289-2.1289-2.1289z"/>
  <path d="m62.957 53.027h-32.156c-1.1758 0-2.1289 0.95312-2.1289 2.1289s0.95312 2.1289 2.1289 2.1289h32.156c1.1758 0 2.1289-0.95312 2.1289-2.1289s-0.95313-2.1289-2.1289-2.1289z"/>
  <path d="m30.801 50.066h16.996c1.1758 0 2.1289-0.95312 2.1289-2.1289s-0.95312-2.1289-2.1289-2.1289h-16.996c-1.1758 0-2.1289 0.95312-2.1289 2.1289s0.95312 2.1289 2.1289 2.1289z"/>
  <path d="m87.871 31.555c-1.3828-0.10156-2.6875 0.28125-3.7617 1l-8.1953-6.1914c0.16797-0.58203 0.26172-1.1914 0.26172-1.8242 0-3.6289-2.9531-6.5781-6.5781-6.5781-2.8828 0-5.332 1.8672-6.2188 4.4531h-28.883c-0.55078-2.5039-2.7773-4.3789-5.4492-4.3789-3.082 0-5.5781 2.5-5.5781 5.582 0 1.4492 0.55469 2.7617 1.4609 3.7539l-10.41 19.586c-0.32422-0.050781-0.65625-0.082031-0.99219-0.082031-3.6289 0-6.5781 2.9492-6.5781 6.5781s2.9531 6.5781 6.5781 6.5781c1.3711 0 2.6445-0.42188 3.6992-1.1445l11.941 8.4219c0.23047 0.16406 0.50781 0.25 0.79297 0.25h33.559l10.816 14.152c0.26562 0.34766 0.67187 0.53906 1.0938 0.53906 0.14844 0 0.29687-0.023438 0.44141-0.074219 0.55859-0.1875 0.93359-0.71094 0.93359-1.3008l-0.003907-13.535h5.2695c0.90234 1.8672 2.8086 3.1602 5.0234 3.1602 3.082 0 5.582-2.5 5.582-5.582 0-2.2734-1.3594-4.2227-3.3086-5.0938l-0.003907-16.605c0.72266-0.24609 1.3984-0.61719 1.9922-1.1328 1.2148-1.0469 1.9453-2.5078 2.0625-4.1055 0.24219-3.3008-2.2461-6.1836-5.5469-6.4258zm-21.461-9.1406c0.6875-1.0273 1.8594-1.707 3.1875-1.707 2.0938 0 3.8008 1.6914 3.8281 3.7773 0 0.019531 0.003907 0.035156 0.003907 0.054687 0 1.0078-0.39453 1.9258-1.0352 2.6094-0.69922 0.75-1.6914 1.2227-2.7969 1.2227-1.8984 0-3.4766-1.3906-3.7773-3.207-0.035156-0.20312-0.054687-0.41016-0.054687-0.62109 0-0.79297 0.23828-1.5234 0.64453-2.1289zm-49.52 32.875c-0.46875 0.85547-1.2539 1.5117-2.1953 1.8125-0.36719 0.11719-0.75781 0.18359-1.1641 0.18359-2.1133 0-3.832-1.7188-3.832-3.832 0-1.9648 1.4883-3.5859 3.3945-3.8047 0.14453-0.015626 0.28906-0.027344 0.4375-0.027344 0.85547 0 1.6445 0.28516 2.2852 0.76172 0.9375 0.69922 1.5469 1.8125 1.5469 3.0703-0.003906 0.66406-0.17578 1.2891-0.47266 1.8359zm69.727 4.0742c-2.75 0.23438-4.9258 2.457-5.0859 5.2266h-6.1055c-0.75781 0-1.375 0.61328-1.375 1.375v10.852l-8.7656-11.465c-0.26172-0.33984-0.66406-0.53906-1.0898-0.53906h-33.801l-11.258-7.9375c0.60938-0.99609 0.96875-2.168 0.96875-3.418 0-2.3086-1.1953-4.3359-2.9961-5.5117l10.125-19.055c0.57031 0.19531 1.1797 0.30859 1.8164 0.30859 2.543 0 4.6875-1.7031 5.3594-4.0312l28.641-0.007813c0.31641 3.3359 3.1289 5.957 6.5469 5.957 1.9961 0 3.7852-0.89844 4.9961-2.3086l7.6328 5.7656c-0.43359 0.75391-0.71094 1.6094-0.78125 2.5352-0.11719 1.6016 0.39453 3.1484 1.4453 4.3633 0.96484 1.1172 2.2773 1.8203 3.7305 2.0156zm3.3555-18.879c-0.19141 0.16406-0.39453 0.30859-0.60547 0.42969-0.66406 0.38672-1.4258 0.56641-2.2148 0.50391-0.18359-0.011719-0.35547-0.054688-0.53125-0.089844-0.82031-0.17578-1.5664-0.59766-2.125-1.2422-0.67969-0.78516-1.0078-1.7891-0.93359-2.8203 0.035156-0.5 0.16797-0.96875 0.375-1.3945 0.41797-0.86719 1.1445-1.5469 2.0273-1.9102 0.45703-0.1875 0.94922-0.29297 1.4688-0.29297 0.09375 0 0.19141 0.003906 0.28516 0.011719 2.1367 0.15625 3.7461 2.0195 3.5898 4.1562-0.078125 1.0234-0.55078 1.9688-1.3359 2.6484z"/>
 </g>
</svg>