<svg xmlns="http://www.w3.org/2000/svg" version="1.1" viewBox="-5.0 -10.0 110.0 135.0">
 <g>
  <path d="m49.992 27.703c-1.375 0-2.7227 0.36328-3.9062 1.0508v-0.003906c-0.089844 0.050781-0.17578 0.11328-0.25781 0.17969-1.1641 0.95312-2.0156 2.2188-2.4766 3.6328-6.0625 2.3789-10.391 7.9766-10.391 14.57v7.8906c-3.2148 1.8672-5.4102 5.2188-5.4102 9.0781 0 5.9766 5.2227 10.68 11.449 10.68h3.1758c0.035157 2.7539 1.5195 5.2969 3.9102 6.6758 2.418 1.3984 5.4102 1.3984 7.8281 0 2.3906-1.3789 3.875-3.9219 3.9102-6.6758h3.1758c6.2266 0 11.449-4.707 11.449-10.68 0-3.8594-2.1953-7.2109-5.4102-9.0781v-7.8906c0-6.6016-4.332-12.195-10.395-14.57-0.46094-1.4141-1.3086-2.6797-2.4727-3.6328-0.078125-0.066407-0.16406-0.125-0.25391-0.17969-1.1953-0.6875-2.5469-1.0508-3.9258-1.0469zm0 3.8594c0.64844 0 1.2852 0.16406 1.8555 0.46484 0.67578 0.60156 1.125 1.4141 1.2695 2.3086h0.003906c0.11328 0.71484 0.62109 1.3047 1.3125 1.5273 5.1719 1.6641 8.7422 6.0781 8.7422 11.27v9.0664c0 0.76562 0.45312 1.4609 1.1562 1.7695 2.5781 1.1289 4.2539 3.4531 4.2539 6.1328 0 3.7227-3.2656 6.8203-7.5898 6.8203h-22.004c-4.3242 0-7.5898-3.0977-7.5898-6.8203 0-2.6836 1.6758-5.0039 4.2539-6.1328h0.003906c0.70312-0.30859 1.1562-1.0039 1.1562-1.7695v-9.0664c0-5.1797 3.5703-9.6016 8.7383-11.27h0.003906c0.6875-0.22266 1.1953-0.80859 1.3125-1.5234 0.14844-0.89844 0.60156-1.7109 1.2734-2.3125 0.57031-0.30078 1.2031-0.46484 1.8477-0.46484zm-3.9531 43.219h7.9219c-0.035157 1.3789-0.77734 2.6406-1.9766 3.332-1.2266 0.71094-2.7383 0.71094-3.9648 0-1.1992-0.69141-1.9414-1.9531-1.9766-3.332z"/>
  <path d="m75.816 43.914c-0.84766-0.22656-1.4375-0.99219-1.4375-1.8672 0-5.5508-3.7109-10.391-9.0742-11.828-0.49609-0.13281-0.91797-0.45703-1.1719-0.89844-0.25781-0.44531-0.32812-0.97266-0.19531-1.4648 0.13281-0.49609 0.45703-0.91797 0.90234-1.1719 0.44141-0.25781 0.96875-0.32812 1.4648-0.19531 7.0312 1.8828 11.938 8.2773 11.938 15.559 0 0.51172-0.20313 1.0039-0.56641 1.3672-0.36328 0.35938-0.85156 0.5625-1.3633 0.5625-0.16797 0-0.33594-0.019531-0.49609-0.0625z"/>
  <path d="m83.969 44.93c-0.84766-0.22656-1.4414-0.99219-1.4414-1.8672 0-10.215-6.8438-19.133-16.711-21.777h0.003906c-0.49609-0.13281-0.91797-0.45703-1.1719-0.89844-0.25781-0.44531-0.32422-0.97266-0.19531-1.4648 0.13281-0.49609 0.45703-0.91797 0.90234-1.1719 0.44141-0.25781 0.96875-0.32812 1.4648-0.19531 11.535 3.0898 19.57 13.562 19.57 25.504v0.003906c0 1.0664-0.86328 1.9297-1.9297 1.9297-0.16797 0-0.33203-0.023438-0.49219-0.0625z"/>
  <path d="m24.184 43.914c0.84766-0.22656 1.4375-0.99219 1.4375-1.8672 0-5.5508 3.7148-10.391 9.0742-11.828 1.0312-0.27734 1.6406-1.3359 1.3672-2.3633-0.13281-0.49609-0.45703-0.91797-0.90234-1.1719-0.44141-0.25781-0.96875-0.32812-1.4648-0.19531-7.0312 1.8867-11.938 8.2773-11.938 15.559 0 1.0664 0.86328 1.9297 1.9297 1.9297 0.16797 0 0.33594-0.019531 0.49609-0.0625z"/>
  <path d="m16.031 44.93c0.84766-0.22656 1.4414-0.99219 1.4414-1.8672-0.003906-10.215 6.8438-19.133 16.707-21.777 0.49609-0.13281 0.91797-0.45312 1.1719-0.89844 0.25781-0.44141 0.32422-0.96875 0.19531-1.4648-0.13281-0.49609-0.45703-0.91797-0.90234-1.1719-0.44141-0.25781-0.96875-0.32422-1.4648-0.19141-11.535 3.0898-19.57 13.562-19.57 25.504 0 1.0664 0.86328 1.9297 1.9297 1.9297 0.16797 0 0.33203-0.019532 0.49219-0.0625z"/>
 </g></svg>