<svg xmlns="http://www.w3.org/2000/svg" xmlns:xlink="http://www.w3.org/1999/xlink" version="1.1" x="0px" y="0px" viewBox="0 0 100 125" enable-background="new 0 0 100 100" xml:space="preserve"><g><path fill-rule="evenodd" clip-rule="evenodd" d="M58.604,13.069c0-1.844-1.508-3.352-3.353-3.352h-2.075   c-1.706,0-3.167-0.919-3.903-2.458c-0.649-1.354-2.032-2.29-3.635-2.29c-1.602,0-2.985,0.936-3.634,2.29   c-0.737,1.539-2.197,2.458-3.903,2.458h-2.262c-1.843,0-3.352,1.508-3.352,3.352v2.751h26.117V13.069z M45.639,8.843   c-0.81,0-1.466-0.656-1.466-1.467c0-0.81,0.656-1.466,1.466-1.466c0.811,0,1.467,0.656,1.467,1.466   C47.105,8.187,46.449,8.843,45.639,8.843z"/><rect x="21.107" y="26.437" fill-rule="evenodd" clip-rule="evenodd" width="37.259" height="3.045"/><rect x="21.107" y="69.304" fill-rule="evenodd" clip-rule="evenodd" width="12.64" height="3.045"/><path fill-rule="evenodd" clip-rule="evenodd" d="M75.204,23.088c0.064-0.001,0.129-0.009,0.194-0.009c0.92,0,1.82,0.15,2.682,0.43   v-9.554c0-1.323-1.082-2.406-2.405-2.406H60.857v2.487h14.347V23.088z"/><path fill-rule="evenodd" clip-rule="evenodd" d="M75.204,75.106l-8.777,8.646L57.78,92.53H15.888V14.036h14.374v-2.487H15.417   c-1.323,0-2.406,1.083-2.406,2.406v78.672c0,1.322,1.083,2.404,2.406,2.404h60.258c1.323,0,2.405-1.082,2.405-2.404V54.592   l-2.876,2.877V75.106z"/><path fill-rule="evenodd" clip-rule="evenodd" d="M85.369,34.429l-6.172-6.172c-2.128-2.128-5.591-2.16-7.758-0.094l-0.001-0.001   l-0.095,0.095L52.271,47.329l-7.072,7.072c-0.438,0.438-0.704,0.921-0.842,1.523c-0.741,3.251-3.822,14.91-4.168,16.258   c-0.045,0.165-0.048,0.344-0.003,0.521c0.141,0.547,0.698,0.877,1.245,0.736c1.343-0.345,13.017-3.43,16.27-4.171   c0.603-0.138,1.086-0.404,1.523-0.842l7.073-7.072l19.071-19.072l0.096-0.095l-0.001-0.001   C87.528,40.019,87.497,36.558,85.369,34.429z M76.22,36.364c0.372-0.372,0.98-0.372,1.353,0l0.182,0.183   c0.372,0.372,0.372,0.979,0,1.352L55.248,60.404c-0.372,0.372-0.98,0.372-1.353,0l-0.182-0.182c-0.371-0.371-0.371-0.98,0-1.353   L76.22,36.364z M49.71,54.865L72.215,32.36c0.372-0.372,0.98-0.372,1.353,0l0.182,0.182c0.371,0.372,0.371,0.98,0,1.352   L51.243,56.399c-0.372,0.372-0.98,0.372-1.353,0l-0.181-0.181C49.337,55.847,49.337,55.237,49.71,54.865z M48.44,69.53   l-4.345-4.344l1.921-7.487l9.91,9.91L48.44,69.53z M81.759,41.903L59.253,64.409c-0.372,0.372-0.98,0.372-1.353,0l-0.182-0.182   c-0.372-0.372-0.372-0.98,0.001-1.353L80.225,40.37c0.372-0.372,0.98-0.372,1.353,0l0.182,0.182   C82.13,40.923,82.13,41.532,81.759,41.903z"/><polygon fill-rule="evenodd" clip-rule="evenodd" points="57.78,75.106 57.78,90.595 73.23,75.106  "/><polygon fill-rule="evenodd" clip-rule="evenodd" points="57.437,37.153 21.107,37.153 21.107,40.199 54.389,40.199  "/><polygon fill-rule="evenodd" clip-rule="evenodd" points="46.712,47.871 21.107,47.871 21.107,50.915 43.666,50.915  "/><path fill-rule="evenodd" clip-rule="evenodd" d="M40.049,58.587H21.107v3.045H39.27C39.545,60.566,39.81,59.53,40.049,58.587z"/></g></svg>