<svg xmlns="http://www.w3.org/2000/svg" version="1.1" viewBox="-5.0 -10.0 110.0 135.0">
 <path d="m97.738 28.355c-0.46875-1.5625-1.5156-2.8477-2.9531-3.6211-1.4336-0.77344-3.0859-0.94141-4.6484-0.47266s-2.8477 1.5156-3.625 2.9531c-1.0391 1.9297-0.96484 4.2109 0.14453 6.043l-19.066 15.887c-0.76172 0.63281-1.75 0.85938-2.7109 0.61719-0.96094-0.24219-1.7227-0.91016-2.0938-1.8281l-9.6719-24.086c1.7891-1.0664 2.9922-3.0195 2.9922-5.25 0-3.3672-2.7383-6.1055-6.1055-6.1055s-6.1055 2.7383-6.1055 6.1055c0 2.2305 1.2031 4.1836 2.9922 5.25l-9.6719 24.086c-0.37109 0.91797-1.1328 1.5859-2.0938 1.8281-0.96094 0.24219-1.9492 0.019531-2.7109-0.61719l-19.07-15.887c1.1094-1.832 1.1836-4.1133 0.14453-6.043-0.77344-1.4375-2.0625-2.4844-3.625-2.9531s-3.2148-0.30078-4.6484 0.47266c-1.4375 0.77344-2.4844 2.0586-2.9531 3.6211s-0.30078 3.2148 0.47266 4.6484c1.0391 1.9297 2.9844 3.1211 5.125 3.2031l5.207 46.207c0.32812 2.9023 2.7773 5.0898 5.6953 5.0898h62.484c2.9219 0 5.3672-2.1875 5.6953-5.0898l5.207-46.207c2.1367-0.082031 4.0859-1.2734 5.125-3.2031 0.77344-1.4375 0.94141-3.0859 0.47266-4.6484zm-47.738-13.965c2.3203 0 4.207 1.8867 4.207 4.207 0 2.3203-1.8867 4.207-4.207 4.207s-4.207-1.8867-4.207-4.207c0-2.3203 1.8867-4.207 4.207-4.207zm-45.598 17.715c-0.53125-0.98828-0.64844-2.1289-0.32422-3.2031 0.32422-1.0781 1.0469-1.9648 2.0352-2.4961 0.62109-0.33594 1.3008-0.50391 1.9883-0.50391 0.40625 0 0.8125 0.058594 1.2148 0.17969 1.0781 0.32422 1.9648 1.0469 2.5 2.0352 0.82422 1.5273 0.63281 3.3711-0.48047 4.6992-0.33984 0.41016-0.75391 0.74609-1.2266 0.99609-0.47656 0.25391-0.98438 0.41406-1.5117 0.47656-1.7227 0.19922-3.3672-0.66016-4.1914-2.1875zm80.648 50.098c-0.21875 1.9414-1.8555 3.4062-3.8086 3.4062h-62.484c-1.9531 0-3.5898-1.4648-3.8086-3.4062l-5.207-46.211c0.43359-0.12109 0.85547-0.28906 1.2578-0.50781 0.40625-0.21875 0.78125-0.47656 1.1211-0.77734l19.074 15.891c0.90625 0.75781 2.0156 1.1523 3.1562 1.1523 0.41016 0 0.82031-0.050781 1.2305-0.15625 1.5547-0.39062 2.793-1.4727 3.3906-2.9609l9.6758-24.086c0.43359 0.097656 0.88672 0.15234 1.3516 0.15234s0.91797-0.054688 1.3516-0.15234l9.6758 24.086c0.59766 1.4883 1.832 2.5664 3.3906 2.9609 0.41016 0.10547 0.82422 0.15625 1.2305 0.15625 1.1406 0 2.2461-0.39844 3.1562-1.1523l19.074-15.891c0.33984 0.29688 0.71484 0.55859 1.1211 0.77734 0.40234 0.21484 0.82422 0.38281 1.2578 0.50391l-5.207 46.211zm10.547-50.098c-0.82422 1.5273-2.4688 2.3867-4.1875 2.1875-0.52734-0.0625-1.0391-0.22266-1.5156-0.47656-0.47266-0.25391-0.88672-0.58984-1.2305-1-1.1133-1.3281-1.3047-3.1719-0.48047-4.6992 0.53516-0.98828 1.4219-1.7148 2.5-2.0352 0.39844-0.12109 0.80859-0.17969 1.2148-0.17969 0.6875 0 1.3672 0.17188 1.9922 0.50781 0.98828 0.53125 1.7109 1.418 2.0352 2.4961s0.20703 2.2148-0.32422 3.2031z"/>
</svg>