<svg xmlns="http://www.w3.org/2000/svg" version="1.1" viewBox="-5.0 -10.0 110.0 135.0">
 <path d="m7.4688 52.066c-0.17188 0.80859-0.96875 1.3242-1.7734 1.1523-0.80859-0.17188-1.3242-0.96875-1.1523-1.7734 2.2734-10.582 8.1523-19.836 16.285-26.398 7.9766-6.4375 18.129-10.297 29.176-10.297 12.84 0 24.465 5.207 32.883 13.621 8.4141 8.4141 13.621 20.039 13.621 32.879 0 4.1641-0.55078 8.2031-1.582 12.055-1.0625 3.9648-2.6367 7.7266-4.6484 11.199-0.41406 0.71484-1.3281 0.95703-2.043 0.54297l-9.1133-5.2617c-0.71484-0.41016-0.96094-1.3242-0.55078-2.0391 1.4219-2.4609 2.5391-5.1289 3.2891-7.9453 0.72656-2.7188 1.1172-5.5859 1.1172-8.5508 0-8.6602-3.3438-16.543-8.8047-22.426l-17.66 20.938c0.21094 0.92578 0.22266 1.8945 0.03125 2.8281-0.24219 1.1953-0.81641 2.3398-1.7227 3.2812-1.2695 1.3242-2.9688 2.0156-4.6758 2.0508s-3.4258-0.57812-4.7578-1.8516c-1.3281-1.2695-2.0156-2.9688-2.0508-4.6758-0.035157-1.707 0.57812-3.4258 1.8555-4.7617 0.90234-0.94141 2.0234-1.5664 3.207-1.8555 0.92578-0.23047 1.8906-0.25781 2.8242-0.085938l20.16-18.539c-5.7539-4.9062-13.219-7.8672-21.375-7.8672-6.6875 0-12.906 1.9844-18.09 5.3945-5.3516 3.5195-9.6211 8.5625-12.191 14.512-0.32422 0.75781-1.2109 1.1133-1.9688 0.78516-0.75781-0.32422-1.1133-1.2109-0.78516-1.9688 0.35547-0.82422 0.74219-1.6367 1.1602-2.4297l-6.5312-3.7695c-1.8633 3.4961-3.2695 7.2773-4.125 11.262zm21.461 21.246h43.484c0.82813 0 1.5 0.67188 1.5 1.5v6.0625c0 0.82812-0.67187 1.5-1.5 1.5h-43.484c-0.82813 0-1.5-0.67188-1.5-1.5v-6.0625c0-0.82812 0.67187-1.5 1.5-1.5zm41.984 3h-40.484v3.0625h40.484zm2.6836-42.207 2.8945-2.6641c0.60937-0.55859 1.5586-0.51953 2.1172 0.089844 0.52344 0.57031 0.52344 1.4414 0.015625 2.0078l-2.5117 2.9766c1.5898 1.6797 3.0195 3.5117 4.2656 5.4727l6.5273-3.7695c-1.7539-2.8047-3.8203-5.3984-6.1484-7.7266-2.3281-2.3281-4.918-4.3906-7.7227-6.1484l-3.7695 6.5273c1.5234 0.96875 2.9727 2.0508 4.3281 3.2344zm-19.992 27.887c0.13281-0.66797 0.082031-1.375-0.16016-2.0273-0.19531-0.49609-0.12109-1.082 0.25-1.5195l7.418-8.7969-8.4023 7.7266c-0.38672 0.40234-0.98438 0.57031-1.5508 0.38672-0.66797-0.22266-1.3867-0.24609-2.0586-0.082031-0.64844 0.16016-1.2656 0.50391-1.7656 1.0234-0.70313 0.73438-1.043 1.6836-1.0234 2.625 0.019531 0.9375 0.40234 1.875 1.1367 2.5781s1.6836 1.043 2.625 1.0234c0.9375-0.019532 1.875-0.40234 2.5781-1.1367 0.5-0.51953 0.81641-1.1523 0.94922-1.8047zm-47.086-2.2422h7.5391c0.03125-0.73438 0.085937-1.4727 0.16016-2.2109 0.125-1.2383 0.31641-2.4609 0.56641-3.6602 0.16797-0.80859 0.96094-1.3281 1.7695-1.1602 0.80859 0.16797 1.3281 0.96094 1.1602 1.7695-0.23047 1.0977-0.40234 2.2188-0.51953 3.3555-0.11328 1.0938-0.17187 2.2305-0.17187 3.4062 0 2.9609 0.38672 5.8281 1.1172 8.5469 0.75391 2.8164 1.8711 5.4844 3.2891 7.9414 0.41406 0.71484 0.17187 1.6328-0.54297 2.043l-9.125 5.2617c-0.71484 0.41016-1.625 0.16406-2.0352-0.54688-2.0156-3.4727-3.5898-7.2305-4.6523-11.195-1.0312-3.8477-1.582-7.8906-1.582-12.055 0-0.70703 0.019531-1.4766 0.058593-2.293 0.035157-0.75781 0.09375-1.5234 0.16797-2.293 0.078125-0.82031 0.80859-1.4258 1.6289-1.3477 0.82031 0.078125 1.4258 0.80859 1.3477 1.6289-0.070312 0.69922-0.12109 1.418-0.15625 2.1523l-0.027343 0.64844zm7.5391 3h-7.5352c0.11328 3.375 0.61328 6.6523 1.4492 9.7812 0.86328 3.2227 2.0859 6.293 3.6211 9.168l6.5312-3.7695c-1.2148-2.3203-2.1836-4.7852-2.875-7.3594-0.67188-2.5117-1.082-5.1289-1.1914-7.8203zm71.879-3h7.5352c-0.23438-6.832-2.0391-13.266-5.0703-18.945l-6.5273 3.7695c2.3945 4.5703 3.8398 9.7188 4.0625 15.18zm7.5352 3h-7.5352c-0.10938 2.6875-0.51953 5.3086-1.1914 7.8203-0.6875 2.5742-1.6602 5.0391-2.875 7.3555l6.5312 3.7695c1.5352-2.875 2.7578-5.9453 3.6211-9.168 0.83594-3.1289 1.3359-6.4023 1.4492-9.7812zm-41.977-44.973v7.5352c5.4609 0.22266 10.609 1.668 15.176 4.0625l3.7695-6.5273c-5.6797-3.0312-12.113-4.8359-18.945-5.0703zm-3 7.5352v-7.5352c-6.832 0.23047-13.266 2.0391-18.945 5.0664l3.7734 6.5352c4.5703-2.3984 9.7188-3.8398 15.172-4.0664zm-25.801 2.0664c-3.7734 3.043-7.0273 6.707-9.6094 10.836l6.5312 3.7734c2.7422-4.3125 6.375-8 10.645-10.805l0.46875-0.30469-3.7734-6.5352c-1.4844 0.92969-2.9102 1.9414-4.2656 3.0352z"/>
</svg>