<svg xmlns="http://www.w3.org/2000/svg" version="1.1" viewBox="-5.0 -10.0 110.0 135.0">
 <path d="m88.5 42.281-1.4336-1.4297c-0.50391-0.46484-1.1523-0.69531-1.8086-0.69531-0.6875 0-1.3672 0.25781-1.8828 0.76562l-1.5156 1.5156 5.2188 5.2188 1.5859-1.5859c0.46484-0.50391 0.69531-1.1562 0.69531-1.8086 0-0.68359-0.25781-1.3672-0.77344-1.8789l-0.09375-0.10156zm-28.203 32.039-5.0898-5.0898-1.6289 6.7188zm-2.3281-7.9805 5.2188 5.2148 21.07-21.07-5.2188-5.2188-21.066 21.074zm19.52-3.4375v32.102c0 1.1055-0.89453 2-2 2l-52.551-0.015625c-1.1016 0-1.9922-0.89453-1.9922-1.9922 0-1.1016 0.89453-1.9922 1.9922-1.9922l50.551 0.007813v-26.105l-10.594 10.598c-0.25391 0.24609-0.57422 0.43359-0.94531 0.52344l-10.598 2.5664c-0.30078 0.074219-0.62891 0.082031-0.95312 0.003906-1.0703-0.25781-1.7266-1.3359-1.4688-2.4062l2.5352-10.473c0.066406-0.39844 0.25-0.77734 0.55859-1.0859l21.465-21.465v-14.828c0-1.1055 0.89453-2 2-2s2 0.89453 2 2v10.828l3.0625-3.0625c1.3047-1.2969 3.0117-1.9453 4.707-1.9453 1.6445 0 3.3008 0.61328 4.582 1.8281l0.125 0.11719 1.457 1.4531c1.2969 1.2969 1.9453 3.0039 1.9453 4.707 0 1.6484-0.61328 3.3008-1.832 4.5859zm-57.168 17.855c-1.1055 0-2-0.89453-2-2 0-1.1055 0.89453-2 2-2h23.133c1.1055 0 2 0.89453 2 2 0 1.1055-0.89453 2-2 2zm0-14.379c-1.1055 0-2-0.89453-2-2 0-1.1055 0.89453-2 2-2h23.133c1.1055 0 2 0.89453 2 2 0 1.1055-0.89453 2-2 2zm0-14.379c-1.1055 0-2-0.89453-2-2s0.89453-2 2-2h43.473c1.1055 0 2 0.89453 2 2s-0.89453 2-2 2zm0-14.379c-1.1055 0-2-0.89453-2-2 0-1.1055 0.89453-2 2-2h43.473c1.1055 0 2 0.89453 2 2 0 1.1055-0.89453 2-2 2zm0-14.379c-1.1055 0-2-0.89453-2-2 0-1.1055 0.89453-2 2-2h23.133c1.1055 0 2 0.89453 2 2 0 1.1055-0.89453 2-2 2zm-4.7812 69.762c1.1016 0 1.9922 0.89453 1.9922 1.9922 0 1.1016-0.89453 1.9922-1.9922 1.9922h-6.9141c-1.1016 0-1.9922-0.89453-1.9922-1.9922l-0.007812-89.992c0-1.1055 0.89453-2 2-2h66.863c1.1055 0 2 0.89453 2 2v10.836c0 1.1055-0.89453 2-2 2s-2-0.89453-2-2v-8.8359h-62.859v86h4.9141zm57.949-70.02c0-1.1055 0.89453-2 2-2s2 0.89453 2 2v0.20703c0 1.1055-0.89453 2-2 2s-2-0.89453-2-2z"/>
</svg>