<svg xmlns="http://www.w3.org/2000/svg" version="1.1" viewBox="-5.0 -10.0 110.0 135.0">
 <g>
  <path d="m59.5 87.602h-47.102c-0.89844 0-1.6992-0.80078-1.6992-1.6992v-41.602c0-0.89844 0.80078-1.6992 1.6992-1.6992h47.102c0.89844 0 1.6992 0.80078 1.6992 1.6992v41.699c0 0.80078-0.80078 1.6016-1.6992 1.6016zm-45.398-3.4023h43.699v-38.301h-43.699z"/>
  <path d="m35.898 69c-3.8984 0-7-3.1016-7-7s3.1016-7 7-7c3.8984 0 7 3.1016 7 7s-3.0977 7-7 7zm0-10.602c-2 0-3.6016 1.6016-3.6016 3.6016s1.6016 3.6016 3.6016 3.6016 3.6016-1.6016 3.6016-3.6016c0.10156-2-1.6016-3.6016-3.6016-3.6016z"/>
  <path d="m35.898 75.199c-0.89844 0-1.6992-0.80078-1.6992-1.6992v-6.1992c0-0.89844 0.80078-1.6992 1.6992-1.6992 0.89844 0 1.6992 0.80078 1.6992 1.6992v6.1992c0.003906 0.89844-0.69922 1.6992-1.6992 1.6992z"/>
  <path d="m53.199 45.898c-0.89844 0-1.6992-0.80078-1.6992-1.6992v-12.898c0-10.398 8.5-18.898 18.898-18.898 10.398 0 18.898 8.5 18.898 18.898v5.1016c0 0.89844-0.80078 1.6992-1.6992 1.6992-0.89844 0-1.6992-0.80078-1.6992-1.6992v-5.1016c0-8.6016-7-15.5-15.5-15.5s-15.5 7-15.5 15.5v12.898c-0.097657 1-0.79688 1.6992-1.6992 1.6992z"/>
 </g>
</svg>