<svg xmlns="http://www.w3.org/2000/svg" version="1.1" viewBox="-5.0 -10.0 110.0 135.0">
 <g>
  <path d="m50 27.777c7.2734 0 13.23-5.9609 13.23-13.23 0-7.2734-5.957-13.234-13.23-13.234s-13.332 5.9609-13.332 13.234c0 7.2695 5.957 13.23 13.332 13.23zm0-24.848c6.3633 0 11.617 5.1523 11.617 11.617s-5.2539 11.617-11.617 11.617c-6.3633-0.003906-11.617-5.2539-11.617-11.617s5.1523-11.617 11.617-11.617z"/>
  <path d="m72.727 46.363c0-9.3945-7.6758-17.07-17.172-17.07h-10.707c-9.3945 0-17.07 7.6758-17.07 17.07v21.617h8.2812l0.003906 30h28.082l-0.003906-30h8.5859zm-1.6172 20h-7.0703v-1.7188l-1.0117-22.727-1.6172 0.10156 1.0117 22.727v31.719h-11.41v-35.254h-1.6172v35.152h-11.82v-31.719l1.0117-22.727-1.6172-0.10156-1.0117 22.727v1.7188h-6.6641v-19.898c0-8.5859 6.9688-15.555 15.555-15.555h10.707c8.5859 0 15.555 6.9688 15.555 15.555z"/>
 </g>
</svg>