<svg xmlns="http://www.w3.org/2000/svg" data-name="Layer 1" viewBox="0 0 69 86.25" x="0px" y="0px"><defs><style>
      .cls-1 {
        stroke-width: 0px;
      }
    </style></defs><path class="cls-1" d="M34.5,69C15.48,69,0,53.52,0,34.5S15.48,0,34.5,0s34.5,15.48,34.5,34.5-15.48,34.5-34.5,34.5ZM34.5,3C17.13,3,3,17.13,3,34.5s14.13,31.5,31.5,31.5,31.5-14.13,31.5-31.5S51.87,3,34.5,3Z"/><g data-name="Path 7521"><polygon class="cls-1" points="11.53 59.5 9.44 57.35 32.63 34.82 9.44 12.44 11.53 10.28 36.95 34.81 11.53 59.5"/></g><g data-name="Path 7522"><rect class="cls-1" x="34.5" y="33.39" width="32.81" height="3"/></g></svg>