<svg xmlns="http://www.w3.org/2000/svg" version="1.1" viewBox="-5.0 -10.0 110.0 135.0">
 <g fill-rule="evenodd">
  <path d="m50.004 87.5c-3.9023 0-7.6797-0.76562-11.238-2.2695-3.4375-1.457-6.5234-3.5391-9.1719-6.1914-2.6445-2.6523-4.7266-5.7383-6.1758-9.1758-1.5078-3.5547-2.2695-7.3281-2.2695-11.223 0-3.9023 0.76172-7.6836 2.2656-11.25 1.4492-3.4414 3.5312-6.5352 6.1758-9.1914 2.6523-2.6562 5.7344-4.7422 9.1719-6.1953 3.5664-1.5039 7.3438-2.2695 11.246-2.2695 3.9023 0 7.6797 0.76562 11.242 2.2695 3.4375 1.457 6.5234 3.5391 9.1719 6.1953 2.6445 2.6562 4.7266 5.7461 6.1758 9.1914 1.5039 3.5625 2.2656 7.3477 2.2656 11.25 0 3.8906-0.76172 7.668-2.2656 11.223-1.4492 3.4375-3.5312 6.5234-6.1758 9.1758-2.6523 2.6523-5.7383 4.7383-9.1719 6.1914-3.5586 1.5039-7.3398 2.2695-11.242 2.2695zm0-56.199c-15.047 0-27.293 12.266-27.293 27.344 0 15.047 12.246 27.293 27.293 27.293s27.293-12.246 27.293-27.293c0-15.078-12.246-27.344-27.293-27.344z"/>
  <path d="m50.004 83.984c-13.973 0-25.344-11.367-25.344-25.344 0-3.4219 0.66797-6.7461 1.9922-9.8789 1.2734-3.0234 3.1016-5.7383 5.4297-8.0703 2.3281-2.3359 5.0391-4.1641 8.0586-5.4453 3.125-1.3281 6.4453-1.9961 9.8672-1.9961 3.4219 0 6.7422 0.67578 9.8672 1.9961 3.0195 1.2812 5.7266 3.1094 8.0586 5.4453 2.3242 2.3359 4.1523 5.0469 5.4297 8.0703 1.3203 3.1289 1.9922 6.4492 1.9922 9.8789-0.007813 13.977-11.375 25.344-25.352 25.344zm0-49.168c-13.109 0-23.777 10.688-23.777 23.828 0 13.109 10.668 23.777 23.777 23.777s23.777-10.668 23.777-23.777c0-13.141-10.668-23.828-23.777-23.828z"/>
  <path d="m50.004 64.258c-3.0938 0-5.6133-2.5195-5.6133-5.6172 0-3.125 2.5195-5.6641 5.6133-5.6641 3.0977 0 5.6172 2.5391 5.6172 5.6641 0 3.0977-2.5195 5.6172-5.6172 5.6172zm0-9.7148c-2.2344 0-4.0508 1.8398-4.0508 4.1016 0 2.2344 1.8164 4.0508 4.0508 4.0508s4.0508-1.8164 4.0508-4.0508c0-2.2617-1.8164-4.1016-4.0508-4.1016z"/>
  <path d="m50.004 41.355c-0.42969 0-0.78125-0.35156-0.78125-0.78125v-6.543c0-0.42969 0.35156-0.78125 0.78125-0.78125 0.42969 0 0.78125 0.35156 0.78125 0.78125v6.543c0 0.42969-0.35156 0.78125-0.78125 0.78125z"/>
  <path d="m59.035 43.75c-0.13281 0-0.26953-0.035156-0.39062-0.10938-0.37109-0.21484-0.5-0.69531-0.28516-1.0703l3.2734-5.6172c0.21484-0.37109 0.69531-0.5 1.0703-0.28516 0.37109 0.21484 0.5 0.69531 0.28516 1.0703l-3.2734 5.6172c-0.14844 0.25391-0.41016 0.39062-0.67969 0.39062z"/>
  <path d="m65.629 50.391c-0.26953 0-0.53125-0.14062-0.67969-0.39062-0.21484-0.375-0.089844-0.84766 0.28906-1.0703l5.6641-3.2734c0.37109-0.21484 0.85156-0.089844 1.0703 0.28906 0.21484 0.375 0.089844 0.85156-0.28906 1.0703l-5.6641 3.2695c-0.12109 0.070313-0.25781 0.10156-0.39062 0.10156z"/>
  <path d="m74.562 59.426h-6.4961c-0.42969 0-0.78125-0.35156-0.78125-0.78125 0-0.42969 0.35156-0.78125 0.78125-0.78125h6.4961c0.42969 0 0.78125 0.35156 0.78125 0.78125 0 0.42969-0.35156 0.78125-0.78125 0.78125z"/>
  <path d="m71.293 71.68c-0.13281 0-0.26953-0.035157-0.39062-0.10156l-5.6641-3.2734c-0.375-0.21484-0.50391-0.69531-0.28906-1.0703 0.21484-0.375 0.69531-0.50391 1.0703-0.28906l5.6641 3.2734c0.375 0.21484 0.50391 0.69531 0.28906 1.0703-0.14844 0.25-0.41016 0.39063-0.67969 0.39063z"/>
  <path d="m62.309 80.664c-0.26953 0-0.53125-0.13672-0.67578-0.38672l-3.2734-5.6172c-0.21484-0.37109-0.09375-0.85156 0.28516-1.0703 0.37109-0.21484 0.85156-0.09375 1.0703 0.28516l3.2734 5.6172c0.21484 0.37109 0.09375 0.85156-0.28516 1.0703-0.12891 0.070312-0.25781 0.10156-0.39453 0.10156z"/>
  <path d="m50.004 83.984c-0.42969 0-0.78125-0.35156-0.78125-0.78125v-6.543c0-0.42969 0.35156-0.78125 0.78125-0.78125 0.42969 0 0.78125 0.35156 0.78125 0.78125v6.543c0 0.42969-0.35156 0.78125-0.78125 0.78125z"/>
  <path d="m37.699 80.664c-0.13281 0-0.26953-0.035156-0.39062-0.10937-0.37109-0.21484-0.5-0.69531-0.28516-1.0703l3.2734-5.6172c0.21484-0.37109 0.69531-0.5 1.0703-0.28516 0.37109 0.21484 0.5 0.69531 0.28516 1.0703l-3.2734 5.6172c-0.14844 0.25391-0.41016 0.39062-0.67969 0.39062z"/>
  <path d="m28.715 71.68c-0.26953 0-0.53125-0.14063-0.67969-0.39063-0.21484-0.375-0.089844-0.85156 0.28906-1.0703l5.6641-3.2734c0.375-0.21484 0.85156-0.089843 1.0703 0.28906 0.21484 0.375 0.089844 0.85156-0.28906 1.0703l-5.6641 3.2734c-0.12109 0.066406-0.25781 0.10156-0.39062 0.10156z"/>
  <path d="m31.938 59.426h-6.4961c-0.42969 0-0.78125-0.35156-0.78125-0.78125 0-0.42969 0.35156-0.78125 0.78125-0.78125h6.4961c0.42969 0 0.78125 0.35156 0.78125 0.78125 0 0.42969-0.35156 0.78125-0.78125 0.78125z"/>
  <path d="m34.379 50.391c-0.13281 0-0.26953-0.035156-0.39062-0.10156l-5.6641-3.2695c-0.375-0.21484-0.50391-0.69531-0.28906-1.0703s0.69531-0.50391 1.0703-0.28906l5.6641 3.2734c0.375 0.21484 0.50391 0.69531 0.28906 1.0703-0.14844 0.25-0.41016 0.39062-0.67969 0.39062z"/>
  <path d="m40.969 43.75c-0.26953 0-0.53125-0.13672-0.67578-0.38672l-3.2734-5.6172c-0.21484-0.37109-0.09375-0.85156 0.28516-1.0703 0.37109-0.21484 0.85156-0.09375 1.0703 0.28516l3.2734 5.6172c0.21484 0.37109 0.09375 0.85156-0.28516 1.0703-0.12891 0.066406-0.26562 0.10156-0.39453 0.10156z"/>
  <path d="m54.055 31.594c-0.42969 0-0.78125-0.35156-0.78125-0.78125v-6.4453c0-0.42969 0.35156-0.78125 0.78125-0.78125 0.42969 0 0.78125 0.35156 0.78125 0.78125v6.4453c0 0.42969-0.35156 0.78125-0.78125 0.78125zm-8.1055 0c-0.42969 0-0.78125-0.35156-0.78125-0.78125v-6.4453c0-0.42969 0.35156-0.78125 0.78125-0.78125 0.42969 0 0.78125 0.35156 0.78125 0.78125v6.4453c0 0.42969-0.35156 0.78125-0.78125 0.78125z"/>
  <path d="m56.105 25.148h-12.207c-1.2734 0-2.4844-0.50391-3.3984-1.4102-0.92969-0.91797-1.4375-2.1328-1.4375-3.4219 0-1.2891 0.50781-2.5039 1.4375-3.4219 0.91797-0.91016 2.125-1.4102 3.3984-1.4102h12.207c1.2734 0 2.4844 0.50391 3.3984 1.4102 0.92188 0.91797 1.4375 2.1328 1.4375 3.4219 0 1.2891-0.50781 2.5039-1.4375 3.4219-0.91406 0.91016-2.125 1.4102-3.3984 1.4102zm-12.207-8.1055c-1.8008 0-3.2734 1.4688-3.2734 3.2734 0 1.8008 1.4688 3.2734 3.2734 3.2734h12.207c1.8008 0 3.2734-1.4688 3.2734-3.2734 0-1.8008-1.4688-3.2734-3.2734-3.2734z"/>
  <path d="m52.25 17.039c-0.42969 0-0.78125-0.35156-0.78125-0.78125 0-0.42969 0.35156-0.78125 0.78125-0.78125 0.38672 0 0.73438-0.32812 0.73438-0.68359 0-0.39453-0.33594-0.73438-0.73438-0.73438h-4.4922c-0.39453 0-0.73437 0.33594-0.73437 0.73438 0 0.35547 0.34766 0.68359 0.73437 0.68359 0.42969 0 0.78125 0.35156 0.78125 0.78125 0 0.42969-0.35156 0.78125-0.78125 0.78125-1.2461 0-2.293-1.0312-2.293-2.2461 0-1.2656 1.0312-2.293 2.293-2.293h4.4922c1.2656 0 2.293 1.0312 2.293 2.293 0 1.2148-1.0508 2.2461-2.293 2.2461z"/>
  <path d="m69.34 39.012c-0.13281 0-0.26562-0.035157-0.38672-0.10156-0.375-0.21484-0.50391-0.69531-0.28906-1.0625l1.707-2.9805c0.21484-0.375 0.69531-0.50391 1.0625-0.28906 0.375 0.21484 0.50391 0.69531 0.28906 1.0625l-1.707 2.9805c-0.14844 0.25-0.41016 0.39062-0.67969 0.39062zm-4.0039-3.1719c-0.13281 0-0.25781-0.035156-0.38281-0.10156-0.375-0.21094-0.50781-0.6875-0.29688-1.0625l1.3203-2.3438c0.21094-0.375 0.6875-0.50781 1.0625-0.29688 0.375 0.21094 0.50781 0.6875 0.29688 1.0625l-1.3203 2.3438c-0.14844 0.25781-0.41016 0.40234-0.68359 0.40234z"/>
  <path d="m73.371 36.984c-0.58203 0-1.1523-0.16016-1.6484-0.46875l-6.5352-3.7539s-0.003906 0-0.003906-0.003907c-1.543-0.90234-2.1016-2.9531-1.2109-4.4844 0.43359-0.76953 1.1484-1.3203 2.0117-1.5469 0.85156-0.22656 1.7422-0.10937 2.5156 0.32422 0.003906 0 0.003906 0.003907 0.007812 0.003907l6.4961 3.7578c0.003906 0 0.003906 0.003906 0.007813 0.003906 1.5664 0.94141 2.1016 2.9258 1.207 4.5156 0 0.003907-0.003906 0.007813-0.003906 0.007813-0.44531 0.75781-1.1914 1.3125-2.0547 1.5273-0.25781 0.078124-0.52344 0.11328-0.78516 0.11328zm-7.4023-5.5742 6.5391 3.7578c0.007813 0.003906 0.015626 0.007812 0.023438 0.015625 0.36719 0.23047 0.8125 0.29688 1.25 0.19141 0.45312-0.11328 0.84375-0.40234 1.0742-0.79297 0.47656-0.85938 0.19922-1.8945-0.64453-2.4062l-6.4844-3.7539c-0.41406-0.23047-0.89453-0.29297-1.3516-0.17578-0.45312 0.11719-0.82422 0.40625-1.0508 0.80469 0 0.003907-0.003907 0.007813-0.003907 0.007813-0.44922 0.78125-0.15234 1.8789 0.64844 2.3477z"/>
  <path d="m30.668 39.012c-0.26953 0-0.53125-0.14062-0.67969-0.39062l-1.707-2.9805c-0.21484-0.375-0.082031-0.85156 0.28906-1.0625 0.375-0.21484 0.85156-0.082031 1.0625 0.28906l1.707 2.9805c0.21484 0.375 0.082031 0.85156-0.28906 1.0625-0.11719 0.066406-0.25391 0.10156-0.38672 0.10156zm4.0039-3.1719c-0.27344 0-0.53516-0.14062-0.68359-0.40234l-1.3203-2.3438c-0.21094-0.375-0.078125-0.85547 0.29688-1.0625 0.375-0.21094 0.85547-0.078125 1.0625 0.29688l1.3203 2.3438c0.21094 0.375 0.078125 0.85547-0.29688 1.0625-0.11719 0.066406-0.25 0.10156-0.38281 0.10156z"/>
  <path d="m26.633 36.984c-0.25781 0-0.52344-0.035156-0.78516-0.097656-0.86328-0.21484-1.6133-0.76953-2.0547-1.5273 0-0.003906-0.003907-0.007813-0.003907-0.007813-0.89453-1.5898-0.35937-3.5781 1.207-4.5156 0.003906 0 0.003906-0.003907 0.007812-0.003907l6.4961-3.7578c0.003906 0 0.003906-0.003907 0.007812-0.003907 0.76953-0.42969 1.6641-0.54687 2.5156-0.32422 0.86328 0.22656 1.5781 0.77734 2.0117 1.5469 0.88672 1.5273 0.33203 3.5781-1.2109 4.4844 0 0-0.003907 0-0.003907 0.003906l-6.5352 3.7539c-0.50391 0.29297-1.0703 0.45312-1.6484 0.45312zm-1.4883-2.4062c0.23047 0.39062 0.625 0.68359 1.0742 0.79297 0.44141 0.10938 0.88281 0.039062 1.25-0.19141 0.007812-0.003907 0.015625-0.007813 0.023438-0.015626l6.5391-3.7578c0.80078-0.46875 1.1055-1.5664 0.64453-2.3477 0-0.003906-0.003906-0.007813-0.003906-0.007813-0.22656-0.40234-0.59375-0.68359-1.0508-0.80469-0.45312-0.11719-0.93359-0.058594-1.3516 0.17578l-6.4844 3.7539c-0.83984 0.51172-1.1172 1.543-0.64062 2.4062zm9.2812-2.4961z"/>
  <path d="m52.836 55.469c-0.34766 0-0.66406-0.23438-0.75781-0.58594l-1.1719-4.4922-0.90234-3.3789-0.90234 3.3789-1.1719 4.4922c-0.10938 0.41406-0.53516 0.66797-0.95313 0.55859-0.41797-0.10938-0.66797-0.53516-0.55859-0.95312l1.1719-4.4922v-0.003906l1.6602-6.1992c0.09375-0.34375 0.40234-0.58203 0.75781-0.58203 0.35156 0 0.66406 0.23828 0.75781 0.58203l1.6602 6.1992v0.003906l1.1719 4.4922c0.10938 0.41797-0.14062 0.84375-0.55859 0.95312-0.074218 0.019532-0.14062 0.03125-0.20703 0.03125z"/>
 </g></svg>